<?xml version="1.0" standalone="yes"?>

<svg version="1.1" viewBox="0.0 0.0 326.2178477690289 141.36220472440945" fill="none" stroke="none" stroke-linecap="square" stroke-miterlimit="10" xmlns="http://www.w3.org/2000/svg" xmlns:xlink="http://www.w3.org/1999/xlink"><clipPath id="p.0"><path d="m0 0l326.21783 0l0 141.3622l-326.21783 0l0 -141.3622z" clip-rule="nonzero"></path></clipPath><g clip-path="url(#p.0)"><path fill="#000000" fill-opacity="0.0" d="m0 0l326.21783 0l0 141.3622l-326.21783 0z" fill-rule="nonzero"></path><path fill="#000000" fill-opacity="0.0" d="m7.0367455 7.0367455l311.52756 0l0 126.645676l-311.52756 0z" fill-rule="nonzero"></path><path stroke="#ff0000" stroke-width="8.0" stroke-linejoin="round" stroke-linecap="butt" d="m7.0367455 7.0367455l311.52756 0l0 126.645676l-311.52756 0z" fill-rule="nonzero"></path><path fill="#000000" fill-opacity="0.0" d="m10.879265 13.745407l303.8425 0l0 113.22835l-303.8425 0z" fill-rule="nonzero"></path><path fill="#ff0000" d="m58.347404 95.12833q0 1.140625 -0.09375 1.90625q-0.09375 0.75 -0.296875 1.21875q-0.1875 0.46875 -0.484375 0.6875q-0.296875 0.21875 -0.640625 0.21875l-25.390625 0q-1.296875 0 -2.171875 -0.765625q-0.875 -0.765625 -0.875 -2.484375l0 -44.0625q0 -1.71875 0.875 -2.46875q0.875 -0.765625 2.171875 -0.765625l25.234375 0q0.34375 0 0.609375 0.203125q0.28125 0.1875 0.46875 0.671875q0.203125 0.484375 0.296875 1.25q0.109375 0.765625 0.109375 1.9375q0 1.09375 -0.109375 1.859375q-0.09375 0.75 -0.296875 1.21875q-0.1875 0.46875 -0.46875 0.6875q-0.265625 0.21875 -0.609375 0.21875l-18.046875 0l0 12.34375l15.265625 0q0.359375 0 0.640625 0.21875q0.296875 0.203125 0.484375 0.65625q0.203125 0.453125 0.296875 1.21875q0.109375 0.75 0.109375 1.84375q0 1.140625 -0.109375 1.890625q-0.09375 0.734375 -0.296875 1.1875q-0.1875 0.4375 -0.484375 0.640625q-0.28125 0.1875 -0.640625 0.1875l-15.265625 0l0 14.265625l18.203125 0q0.34375 0 0.640625 0.21875q0.296875 0.203125 0.484375 0.671875q0.203125 0.46875 0.296875 1.234375q0.09375 0.765625 0.09375 1.890625zm50.742188 0.4375q0 0.890625 -0.3125 1.59375q-0.3125 0.703125 -0.84375 1.171875q-0.515625 0.46875 -1.25 0.6875q-0.71875 0.21875 -1.453125 0.21875l-4.375 0q-1.375 0 -2.375 -0.265625q-0.984375 -0.28125 -1.828125 -1.0q-0.84375 -0.734375 -1.625 -1.953125q-0.78125 -1.234375 -1.75 -3.1875l-12.578125 -23.640625q-1.09375 -2.109375 -2.234375 -4.546875q-1.125 -2.4375 -2.03125 -4.75l-0.078125 0q0.15625 2.8125 0.234375 5.609375q0.078125 2.796875 0.078125 5.765625l0 26.4375q0 0.390625 -0.21875 0.703125q-0.203125 0.3125 -0.734375 0.53125q-0.53125 0.21875 -1.4375 0.328125q-0.890625 0.125 -2.296875 0.125q-1.359375 0 -2.265625 -0.125q-0.890625 -0.109375 -1.40625 -0.328125q-0.5 -0.21875 -0.703125 -0.53125q-0.1875 -0.3125 -0.1875 -0.703125l0 -45.421875q0 -1.84375 1.0625 -2.75q1.078125 -0.921875 2.640625 -0.921875l5.515625 0q1.484375 0 2.5 0.25q1.015625 0.25 1.8125 0.84375q0.796875 0.578125 1.5 1.625q0.703125 1.03125 1.453125 2.546875l9.84375 18.484375q0.859375 1.671875 1.6875 3.296875q0.84375 1.625 1.625 3.25q0.78125 1.609375 1.515625 3.171875q0.75 1.5625 1.453125 3.125l0.046875 0q-0.125 -2.734375 -0.1875 -5.703125q-0.046875 -2.96875 -0.046875 -5.65625l0 -23.71875q0 -0.390625 0.234375 -0.703125q0.234375 -0.3125 0.78125 -0.546875q0.546875 -0.234375 1.4375 -0.328125q0.90625 -0.09375 2.3125 -0.09375q1.328125 0 2.21875 0.09375q0.90625 0.09375 1.390625 0.328125q0.484375 0.234375 0.671875 0.546875q0.203125 0.3125 0.203125 0.703125l0 45.4375zm54.265633 1.796875q-0.203125 0.65625 -0.515625 1.078125q-0.3125 0.40625 -1.015625 0.625q-0.703125 0.21875 -1.921875 0.265625q-1.203125 0.0625 -3.15625 0.0625q-1.5625 0 -2.671875 -0.015625q-1.109375 -0.015625 -1.890625 -0.09375q-0.78125 -0.078125 -1.28125 -0.234375q-0.484375 -0.171875 -0.8125 -0.40625q-0.328125 -0.234375 -0.515625 -0.5625q-0.171875 -0.328125 -0.328125 -0.84375l-15.03125 -44.796875q-0.46875 -1.40625 -0.578125 -2.21875q-0.09375 -0.828125 0.390625 -1.234375q0.5 -0.421875 1.671875 -0.515625q1.171875 -0.09375 3.28125 -0.09375q1.796875 0 2.8125 0.078125q1.015625 0.078125 1.5625 0.28125q0.546875 0.1875 0.75 0.578125q0.21875 0.390625 0.421875 0.96875l12.296875 38.984375l0.046875 0l12.0625 -38.78125q0.15625 -0.671875 0.390625 -1.078125q0.234375 -0.40625 0.796875 -0.640625q0.578125 -0.234375 1.625 -0.3125q1.0625 -0.078125 2.890625 -0.078125q1.796875 0 2.796875 0.125q1.0 0.109375 1.359375 0.5625q0.375 0.4375 0.234375 1.265625q-0.125 0.8125 -0.59375 2.1875l-15.078125 44.84375zm32.460938 0.390625q0 0.390625 -0.265625 0.703125q-0.25 0.3125 -0.84375 0.515625q-0.578125 0.1875 -1.5625 0.296875q-0.96875 0.125 -2.484375 0.125q-1.484375 0 -2.484375 -0.125q-1.0 -0.109375 -1.59375 -0.296875q-0.578125 -0.203125 -0.828125 -0.515625q-0.25 -0.3125 -0.25 -0.703125l0 -47.734375q0 -0.390625 0.25 -0.703125q0.25 -0.3125 0.859375 -0.5q0.609375 -0.203125 1.578125 -0.3125q0.984375 -0.125 2.46875 -0.125q1.515625 0 2.484375 0.125q0.984375 0.109375 1.5625 0.3125q0.59375 0.1875 0.84375 0.5q0.265625 0.3125 0.265625 0.703125l0 47.734375zm36.171875 -0.390625q-0.203125 0.65625 -0.515625 1.078125q-0.3125 0.40625 -1.015625 0.625q-0.703125 0.21875 -1.921875 0.265625q-1.203125 0.0625 -3.15625 0.0625q-1.5625 0 -2.671875 -0.015625q-1.109375 -0.015625 -1.890625 -0.09375q-0.78125 -0.078125 -1.28125 -0.234375q-0.484375 -0.171875 -0.8125 -0.40625q-0.328125 -0.234375 -0.515625 -0.5625q-0.171875 -0.328125 -0.328125 -0.84375l-15.03125 -44.796875q-0.46875 -1.40625 -0.578125 -2.21875q-0.09375 -0.828125 0.390625 -1.234375q0.5 -0.421875 1.671875 -0.515625q1.171875 -0.09375 3.28125 -0.09375q1.796875 0 2.8125 0.078125q1.015625 0.078125 1.5625 0.28125q0.546875 0.1875 0.75 0.578125q0.21875 0.390625 0.421875 0.96875l12.296875 38.984375l0.046875 0l12.0625 -38.78125q0.15625 -0.671875 0.390625 -1.078125q0.234375 -0.40625 0.796875 -0.640625q0.578125 -0.234375 1.625 -0.3125q1.0625 -0.078125 2.890625 -0.078125q1.796875 0 2.796875 0.125q1.0 0.109375 1.359375 0.5625q0.375 0.4375 0.234375 1.265625q-0.125 0.8125 -0.59375 2.1875l-15.078125 44.84375zm67.61719 -24.0625q0 6.28125 -1.5625 11.25q-1.5625 4.953125 -4.65625 8.421875q-3.078125 3.453125 -7.640625 5.28125q-4.546875 1.8125 -10.515625 1.8125q-5.90625 0 -10.296875 -1.546875q-4.390625 -1.546875 -7.328125 -4.703125q-2.921875 -3.171875 -4.390625 -8.046875q-1.46875 -4.890625 -1.46875 -11.578125q0 -6.125 1.5625 -11.03125q1.5625 -4.90625 4.640625 -8.34375q3.09375 -3.4375 7.640625 -5.265625q4.5625 -1.84375 10.578125 -1.84375q5.734375 0 10.125 1.53125q4.40625 1.515625 7.34375 4.6875q2.953125 3.15625 4.453125 7.984375q1.515625 4.828125 1.515625 11.390625zm-10.78125 0.546875q0 -3.984375 -0.625 -7.25q-0.625 -3.265625 -2.140625 -5.578125q-1.5 -2.328125 -4.0 -3.59375q-2.5 -1.28125 -6.25 -1.28125q-3.78125 0 -6.328125 1.4375q-2.53125 1.421875 -4.09375 3.8125q-1.5625 2.375 -2.21875 5.5625q-0.640625 3.171875 -0.640625 6.734375q0 4.140625 0.625 7.4375q0.625 3.296875 2.109375 5.640625q1.484375 2.34375 3.984375 3.578125q2.5 1.234375 6.296875 1.234375q3.78125 0 6.3125 -1.40625q2.546875 -1.40625 4.109375 -3.828125q1.5625 -2.421875 2.203125 -5.640625q0.65625 -3.234375 0.65625 -6.859375z" fill-rule="nonzero"></path></g></svg>

